Coordinates
version=1
nRows=7
nColumns=63
inDegrees=yes

Units are S.I. units (second, meters, Newtons, ...)
If the header above contains a line with 'inDegrees', this indicates whether rotational values are in degrees (yes) or radians (no).

endheader
time	pelvis_tilt	pelvis_list	pelvis_rotation	pelvis_tx	pelvis_ty	pelvis_tz	hip_flexion_r	hip_adduction_r	hip_rotation_r	knee_angle_r	knee_angle_r_beta	ankle_angle_r	subtalar_angle_r	mtp_angle_r	hip_flexion_l	hip_adduction_l	hip_rotation_l	knee_angle_l	knee_angle_l_beta	ankle_angle_l	subtalar_angle_l	mtp_angle_l	L5_S1_Flex_Ext	L5_S1_Lat_Bending	L5_S1_axial_rotation	L4_L5_Flex_Ext	L4_L5_Lat_Bending	L4_L5_axial_rotation	L3_L4_Flex_Ext	L3_L4_Lat_Bending	L3_L4_axial_rotation	L2_L3_Flex_Ext	L2_L3_Lat_Bending	L2_L3_axial_rotation	L1_L2_Flex_Ext	L1_L2_Lat_Bending	L1_L2_axial_rotation	L1_T12_Flex_Ext	L1_T12_Lat_Bending	L1_T12_axial_rotation	Abs_r3	Abs_r2	Abs_r1	Abs_t1	Abs_t2	neck_flexion	neck_bending	neck_rotation	arm_flex_r	arm_add_r	arm_rot_r	elbow_flex_r	pro_sup_r	wrist_flex_r	wrist_dev_r	arm_flex_l	arm_add_l	arm_rot_l	elbow_flex_l	pro_sup_l	wrist_flex_l	wrist_dev_l
      1.32203390	      2.40149776	      5.55099644	     92.41768766	      0.24971025	      1.00725602	      0.47604199	     -5.42114899	      2.88217674	      6.33464603	      0.49721237	      0.00867799	     15.91555738	     -8.99840879	      0.00000000	     -4.26073747	     -3.89127879	     -5.60690129	      2.09349704	      0.03653842	     19.14831161	      6.59398920	      0.00000000	     -0.05932592	      0.04711563	      1.18228740	     -0.11017416	      0.06266379	      1.25618036	     -0.09746655	      0.11455694	      1.25618036	     -0.06780359	      0.11455694	      1.03450147	     -0.05509005	      0.09607819	      0.96060851	     -0.03389883	      0.07298211	      0.88671555	     -0.42375908	      0.53298142	      6.57552782	      0.00000000	      0.00000000	     24.31812442	     -2.53717070	    -11.28663046	    107.02933618	    -28.29926261	     22.52575874	     48.01293752	     88.60102359	    -25.20341497	      7.13271180	    102.72019762	     -2.59032062	     17.63133709	     46.22567843	     87.94884107	    -23.34428876	    -13.32112890
      1.33898305	      2.59156673	      5.60780880	     92.27053323	      0.25009886	      1.00758311	      0.47646843	     -5.30230546	      3.06944555	      8.19371537	      0.46362044	      0.00809170	     15.31270345	    -11.30964581	      0.00000000	     -4.20536868	     -4.13615048	     -6.86124357	      2.22744849	      0.03887631	     19.61313255	      8.01309496	      0.00000000	     -0.09804009	      0.07035740	      1.23259486	     -0.18207025	      0.09357534	      1.30963204	     -0.16107006	      0.17106697	      1.30963204	     -0.11205002	      0.17106697	      1.07852050	     -0.09104003	      0.14347280	      1.00148333	     -0.05602011	      0.10898361	      0.92444615	     -0.70029056	      0.79589694	      6.85532285	      0.00000000	      0.00000000	     23.57792301	     -1.92484651	    -11.38733520	    106.86426775	    -28.56680206	     21.24081222	     49.01702752	     88.54873691	    -24.97983424	      7.59643772	    102.97637431	     -3.55493129	     19.48038639	     47.22815421	     88.21053501	    -26.08632864	    -12.14044290
      1.35593220	      2.76571309	      5.59233907	     91.98188783	      0.25060647	      1.00775363	      0.47697754	     -5.09710628	      3.23139466	     10.00301840	      0.43435775	      0.00758097	     14.68853702	    -13.48217386	      0.00000000	     -4.10920370	     -4.34651953	     -8.49917882	      2.34342035	      0.04090040	     20.09169324	      9.75343616	      0.00000000	     -0.10783526	      0.09487129	      1.25325067	     -0.20026087	      0.12617882	      1.33157884	     -0.17716256	      0.23067006	      1.33157884	     -0.12324492	      0.23067006	      1.09659434	     -0.10013583	      0.19346154	      1.01826617	     -0.06161707	      0.14695563	      0.93993800	     -0.77025651	      1.07320302	      6.97020425	      0.00000000	      0.00000000	     23.15953221	     -1.63295753	    -10.96531246	    106.31673161	    -28.43199658	     19.92765916	     49.75019083	     88.37509975	    -24.73586333	      7.10431855	    102.70466379	     -4.60689069	     20.35638512	     48.44782500	     88.30260864	    -27.61986361	    -11.21490812
      1.37288136	      2.92668101	      5.63381603	     91.74486228	      0.25097640	      1.00782006	      0.47748432	     -4.97220116	      3.37441322	     10.72687656	      0.42066332	      0.00734196	     14.48085423	    -14.05547609	      0.00000000	     -4.16895640	     -4.50283255	     -8.94839402	      2.26712968	      0.03956888	     20.27312334	      9.94557302	      0.00000000	     -0.11269442	      0.12715970	      1.20503855	     -0.20928481	      0.16912240	      1.28035346	     -0.18514567	      0.30917610	      1.28035346	     -0.12879846	      0.30917610	      1.05440873	     -0.10464804	      0.25930406	      0.97909382	     -0.06439359	      0.19697038	      0.90377891	     -0.80496499	      1.43845597	      6.70206289	      0.00000000	      0.00000000	     23.01280545	     -1.51736252	     -9.85697954	    105.72780605	    -27.96967436	     19.21327808	     50.04198963	     88.05037263	    -24.43606259	      5.67311149	    102.11223470	     -6.23547271	     21.01700471	     50.06423570	     88.26988166	    -28.46183215	    -10.21040379
      1.38983051	      3.01455150	      5.68633308	     91.52574065	      0.25149092	      1.00776544	      0.47795386	     -4.90144983	      3.45858615	     11.44814366	      0.41146475	      0.00718141	     14.26868101	    -14.73074660	      0.00000000	     -4.27014848	     -4.59000355	     -9.24958309	      2.16492750	      0.03778511	     20.36932999	     10.03738048	      0.00000000	     -0.11255855	      0.15054537	      1.11717065	     -0.20903249	      0.20022534	      1.18699382	     -0.18492245	      0.36603600	      1.18699382	     -0.12864317	      0.36603600	      0.97752432	     -0.10452187	      0.30699211	      0.90770116	     -0.06431596	      0.23319477	      0.83787799	     -0.80399449	      1.70299929	      6.21336803	      0.00000000	      0.00000000	     23.10438174	     -1.20622119	     -8.58580222	    105.02652043	    -27.43855885	     18.93753976	     50.21184512	     87.57060901	    -24.18685903	      3.82880402	    101.37805651	     -8.27853912	     21.65520131	     51.90302717	     88.17672709	    -28.98531539	     -9.30227238
      1.40677966	      3.11944559	      5.77363398	     91.30104992	      0.25191798	      1.00773422	      0.47834837	     -4.91701216	      3.55836094	     11.69417081	      0.39343996	      0.00686682	     14.19022204	    -14.81017390	      0.00000000	     -4.43317205	     -4.69250069	     -9.34206682	      2.06393498	      0.03602246	     20.35371316	      9.97959332	      0.00000000	     -0.11704184	      0.16805789	      1.07027874	     -0.21735841	      0.22351700	      1.13717116	     -0.19228805	      0.40861596	      1.13717116	     -0.13376712	      0.40861596	      0.93649390	     -0.10868506	      0.34270365	      0.86960147	     -0.06687771	      0.26032167	      0.80270905	     -0.83601819	      1.90110449	      5.95256926	      0.00000000	      0.00000000	     23.39020407	     -0.86760605	     -8.34396772	    104.13613896	    -27.62104429	     19.06866777	     51.05134260	     87.31040728	    -24.24501177	      3.10746659	    100.59482370	     -9.85874441	     21.80266790	     53.36311327	     88.16277343	    -29.03624156	     -9.43825745
      1.42372881	      3.13398326	      5.74457638	     91.02353098	      0.25258681	      1.00759393	      0.47862039	     -4.85866738	      3.57116203	     12.47587590	      0.38074394	      0.00664524	     13.82849232	    -15.63869476	      0.00000000	     -4.51718840	     -4.68088834	     -9.25056764	      1.92785734	      0.03364746	     20.15171839	      9.47607644	      0.00000000	     -0.10368649	      0.19400991	      0.95236368	     -0.19255618	      0.25803318	      1.01188641	     -0.17034653	      0.47171570	      1.01188641	     -0.11850329	      0.47171570	      0.83331822	     -0.09628327	      0.39562501	      0.77379549	     -0.05924646	      0.30052136	      0.71427276	     -0.74062222	      2.19467894	      5.29676107	      0.00000000	      0.00000000	     23.73334408	     -0.51117227	     -5.88869327	    103.20999185	    -26.49630986	     18.64858667	     51.02858384	     86.51685845	    -25.04259681	      0.62738418	     99.40364293	    -12.86331840	     22.09636403	     56.39564519	     88.10138151	    -28.37339205	     -6.58295980
